<svg width="101" height="100" viewBox="0 0 101 100" fill="none" xmlns="http://www.w3.org/2000/svg">
<path d="M68.9839 35.6612C68.7229 35.4496 68.4189 35.2871 68.0892 35.183C67.7595 35.079 67.4105 35.0354 67.0624 35.0548C66.7144 35.0742 66.374 35.1563 66.0605 35.2962C65.7471 35.4361 65.4668 35.6311 65.2358 35.8702C65.2061 35.8974 65.1787 35.9287 65.1536 35.958L49.2269 52.5708C48.7734 53.0516 48.1299 53.348 47.4378 53.3946C46.7456 53.4413 46.0616 53.2344 45.536 52.8196C45.488 52.7819 45.4424 52.7442 45.3967 52.7024C44.8716 52.2113 44.5664 51.5579 44.5415 50.8711C44.5165 50.1843 44.7736 49.5138 45.2619 48.9919L59.9003 33.692C60.3889 33.1575 60.6451 32.4768 60.6198 31.7803C60.5945 31.0838 60.2895 30.4203 59.7633 29.9166C59.5097 29.6905 59.2099 29.5123 58.8811 29.3922C58.5523 29.2721 58.2008 29.2126 57.8468 29.2169C57.4928 29.2212 57.1431 29.2891 56.8179 29.4171C56.4926 29.5451 56.1982 29.7305 55.9512 29.9627L55.8643 30.0484L48.3066 37.9272C47.8531 38.4081 47.2094 38.7044 46.5173 38.7511C45.8251 38.7977 45.1411 38.5909 44.6155 38.176C44.5698 38.1384 44.5219 38.0986 44.4785 38.0589C43.9525 37.5683 43.6468 36.9151 43.6214 36.2281C43.596 35.5412 43.8529 34.8704 44.3414 34.3483L61.8966 16.0612C62.3884 15.548 62.6594 14.8886 62.6594 14.2059C62.6594 13.5233 62.3884 12.864 61.8966 12.3508C61.4412 11.8812 60.8011 11.5956 60.1164 11.5564C59.4317 11.5172 58.7578 11.7276 58.2421 12.1416C58.172 12.1972 58.1057 12.2565 58.0434 12.3194L57.9429 12.4176L34.1889 37.1077C33.6977 37.6208 33.4269 38.2798 33.4269 38.962C33.4269 39.6442 33.6977 40.3032 34.1889 40.8163C34.6443 41.2858 35.2844 41.5713 35.9691 41.6105C36.6538 41.6497 37.3276 41.4393 37.8434 41.0253C37.9131 40.9694 37.9794 40.91 38.0421 40.8475L38.1426 40.7493L39.1933 39.6664C39.6468 39.1856 40.2903 38.8893 40.9824 38.8427C41.6746 38.796 42.3587 39.0029 42.8842 39.4177C42.9322 39.4554 42.9779 39.495 43.0236 39.5347C43.5486 40.0255 43.8535 40.6786 43.8785 41.365C43.9034 42.0515 43.6465 42.7215 43.1583 43.2431L32.0762 54.8013C31.5876 55.3358 31.3314 56.0163 31.3567 56.7128C31.382 57.4094 31.6869 58.0729 32.2132 58.5766C32.4669 58.8025 32.7667 58.9805 33.0956 59.1004C33.4246 59.2203 33.7762 59.2798 34.1302 59.2754C34.4842 59.2709 34.8337 59.2026 35.1589 59.0744C35.484 58.9463 35.7785 58.7608 36.0253 58.5285L36.1121 58.4449L40.0771 54.3079C40.3009 54.0734 40.573 53.8815 40.8779 53.7433C41.1827 53.6051 41.5143 53.5233 41.8537 53.5025C42.1931 53.4818 42.5337 53.5224 42.8559 53.6222C43.1781 53.722 43.4758 53.8791 43.7317 54.0842C43.7939 54.1337 43.8534 54.186 43.9098 54.241C44.4189 54.7264 44.7141 55.3667 44.739 56.0392C44.7639 56.7116 44.5165 57.3688 44.0445 57.8846L41.4362 60.6022C40.9448 61.1156 40.6739 61.7749 40.6739 62.4575C40.6739 63.14 40.9448 63.7993 41.4362 64.3127C41.9021 64.7894 42.5558 65.0772 43.2535 65.1129C43.9512 65.1485 44.6358 64.9292 45.1568 64.503C45.2185 64.4507 45.2779 64.3985 45.3327 64.3441L45.4333 64.2437L69.1871 39.4574C69.6837 38.9323 69.9454 38.255 69.92 37.5609C69.8946 36.8668 69.5839 36.207 69.0501 35.7134C69.0501 35.6946 69.0159 35.6947 68.9839 35.6612Z" fill="#E33F49"/>
<path d="M63.6988 27.2785C64.9968 27.2785 66.0491 26.2584 66.0491 25C66.0491 23.7415 64.9968 22.7214 63.6988 22.7214C62.4008 22.7214 61.3486 23.7415 61.3486 25C61.3486 26.2584 62.4008 27.2785 63.6988 27.2785Z" fill="#E33F49"/>
<path d="M23.4412 68.3878V69.6901C23.4412 70.2385 22.9532 70.6726 22.3723 70.604C22.2329 70.5812 22.0935 70.5812 21.9541 70.5812C20.6761 70.5812 20.0487 71.2209 20.0487 72.5461V73.917C20.0487 73.9398 20.072 73.9627 20.0952 73.9627H22.4188C22.93 73.9627 23.3715 74.374 23.3715 74.8995V76.3617C23.3715 76.8644 22.9532 77.2985 22.4188 77.2985H20.0952C20.072 77.2985 20.0487 77.3213 20.0487 77.3442V87.283C20.0487 87.7857 19.6305 88.2198 19.096 88.2198H17.2604C16.7492 88.2198 16.3077 87.8085 16.3077 87.283V77.2756C16.3077 77.2528 16.2845 77.2299 16.2612 77.2299H14.96C14.4488 77.2299 14.0073 76.8187 14.0073 76.2932V74.8309C14.0073 74.3283 14.4256 73.8942 14.96 73.8942H16.2612C16.2845 73.8942 16.3077 73.8713 16.3077 73.8485V72.409C16.3077 69.0732 18.1201 67.3368 21.5126 67.3368C21.8844 67.3368 22.2561 67.3596 22.6047 67.4282C23.0926 67.5424 23.4412 67.9308 23.4412 68.3878Z" fill="#221F1F"/>
<path d="M31.481 68.3878V69.6901C31.481 70.2385 30.993 70.6726 30.4121 70.604C30.2727 70.5812 30.1333 70.5812 29.9939 70.5812C28.7159 70.5812 28.0885 71.2209 28.0885 72.5461V73.917C28.0885 73.9398 28.1117 73.9627 28.135 73.9627H30.4586C30.9698 73.9627 31.4113 74.374 31.4113 74.8995V76.3617C31.4113 76.8644 30.993 77.2985 30.4586 77.2985H28.135C28.1117 77.2985 28.0885 77.3213 28.0885 77.3442V87.283C28.0885 87.7857 27.6703 88.2198 27.1358 88.2198H25.3002C24.789 88.2198 24.3475 87.8085 24.3475 87.283V77.2756C24.3475 77.2528 24.3243 77.2299 24.301 77.2299H22.9998C22.4886 77.2299 22.0471 76.8187 22.0471 76.2932V74.8309C22.0471 74.3283 22.4654 73.8942 22.9998 73.8942H24.301C24.3243 73.8942 24.3475 73.8713 24.3475 73.8485V72.409C24.3475 69.0732 26.1599 67.3368 29.5524 67.3368C29.9242 67.3368 30.2959 67.3596 30.6445 67.4282C31.1324 67.5424 31.481 67.9308 31.481 68.3878Z" fill="#221F1F"/>
<path d="M36.5699 69.7129C36.5931 70.6497 35.9193 71.4037 35.0131 71.5179C33.7118 71.7007 32.7359 70.8325 32.8753 69.553C32.9915 68.5934 33.8745 67.8623 34.9433 67.9994C35.8496 68.1136 36.5466 68.8219 36.5699 69.7129Z" fill="#221F1F"/>
<path d="M36.5698 74.9451V87.1231C36.5698 87.6714 36.1051 88.1284 35.5474 88.1284H33.8976C33.34 88.1284 32.8752 87.6714 32.8752 87.1231V74.9451C32.8752 74.3968 33.34 73.9398 33.8976 73.9398H35.5474C36.1051 73.9398 36.5698 74.3968 36.5698 74.9451Z" fill="#221F1F"/>
<path d="M43.1457 68.2736V87.1232C43.1457 87.6715 42.681 88.1285 42.1233 88.1285H40.4736C39.9159 88.1285 39.4512 87.6715 39.4512 87.1232V68.2736C39.4512 67.7253 39.9159 67.2683 40.4736 67.2683H42.1233C42.681 67.2683 43.1457 67.7253 43.1457 68.2736Z" fill="#221F1F"/>
<path d="M49.7214 69.7129C49.7446 70.6497 49.0708 71.4037 48.1645 71.5179C46.8633 71.7007 45.8874 70.8325 46.0268 69.553C46.143 68.5934 47.026 67.8623 48.0948 67.9994C48.9778 68.1136 49.6981 68.8219 49.7214 69.7129Z" fill="#221F1F"/>
<path d="M49.7214 74.9451V87.1231C49.7214 87.6714 49.2567 88.1284 48.699 88.1284H47.0492C46.4916 88.1284 46.0269 87.6714 46.0269 87.1231V74.9451C46.0269 74.3968 46.4916 73.9398 47.0492 73.9398H48.699C49.2567 73.9398 49.7214 74.3968 49.7214 74.9451Z" fill="#221F1F"/>
<path d="M63.9419 78.8063V87.5799C63.9419 87.8769 63.6863 88.1283 63.3842 88.1283H61.293C61.0142 88.1283 60.7586 87.9226 60.7353 87.6485C60.6656 87.2143 60.1312 87.0087 59.8059 87.3057C58.9461 88.0597 57.8308 88.4481 56.4599 88.4481C53.8342 88.4481 52.0682 86.8488 52.0682 84.3584C52.0682 81.7537 53.718 80.5427 56.5296 80.1086L60.2241 79.446C60.2474 79.446 60.2474 79.4232 60.2474 79.4004V78.8977C60.2474 77.4583 59.5735 76.75 58.2258 76.75C57.157 76.75 56.3205 77.3212 56.1113 78.1894C56.0416 78.4407 55.8325 78.6235 55.5537 78.6235H53.1139C52.7653 78.6235 52.4865 78.3037 52.5562 77.9609C53.0209 75.3791 55.1586 73.6427 58.2258 73.6427C61.7577 73.6198 63.9419 75.4248 63.9419 78.8063ZM60.2474 81.9136C60.2474 81.8908 60.2241 81.8679 60.2009 81.8679L57.3661 82.4391C56.274 82.6905 55.7395 83.216 55.7395 84.0385C55.7395 84.9067 56.3669 85.4322 57.4126 85.4322C58.4117 85.4322 59.1785 85.0209 59.7129 84.1527C60.0615 83.6272 60.2241 83.0103 60.2241 82.2792V81.9136H60.2474Z" fill="#221F1F"/>
<path d="M12.6135 78.8064V87.58C12.6135 87.8771 12.3579 88.1284 12.0559 88.1284H9.96462C9.68579 88.1284 9.43019 87.9228 9.40695 87.6486C9.33724 87.2145 8.80281 87.0088 8.47751 87.3059C7.61777 88.0598 6.50243 88.4483 5.1315 88.4483C2.50581 88.4483 0.739868 86.8489 0.739868 84.3585C0.739868 81.7538 2.38963 80.5429 5.20121 80.1088L8.89576 79.4462C8.919 79.4462 8.91899 79.4233 8.91899 79.4005V78.8978C8.91899 77.4584 8.24515 76.7501 6.89745 76.7501C5.82859 76.7501 4.99208 77.3213 4.78296 78.1895C4.71325 78.4409 4.50413 78.6236 4.22529 78.6236H1.7855C1.43695 78.6236 1.15812 78.3038 1.22783 77.9611C1.69255 75.3792 3.83028 73.6428 6.89745 73.6428C10.4293 73.6199 12.6135 75.4249 12.6135 78.8064ZM8.91899 81.9137C8.91899 81.8909 8.89576 81.8681 8.87252 81.8681L6.03771 82.4393C4.94561 82.6906 4.41118 83.2161 4.41118 84.0386C4.41118 84.9068 5.03856 85.4323 6.08418 85.4323C7.08334 85.4323 7.85013 85.0211 8.38456 84.1528C8.73311 83.6273 8.89576 83.0104 8.89576 82.2793V81.9137H8.91899Z" fill="#E33F49"/>
<path d="M70.0532 68.1364L70.0299 72.0891C70.0299 72.112 70.0532 72.1348 70.0764 72.1348H72.4697C72.9344 72.1348 73.3295 72.5232 73.3295 72.9802V74.5795C73.3295 75.0365 72.9344 75.4249 72.4697 75.4249H70.0299C70.0067 75.4249 69.9835 75.4478 69.9835 75.4706L69.937 83.1018C69.937 84.5869 70.4249 85.1353 71.8191 85.1353C72.0282 85.1353 72.2141 85.1353 72.4 85.1124C72.9112 85.0668 73.3295 85.4552 73.3295 85.9578V87.4886C73.3295 87.8999 73.0274 88.2426 72.6324 88.3112C72.1677 88.4026 71.6332 88.4482 71.0058 88.4482C67.7993 88.4482 66.2192 87.1002 66.2424 83.9701L66.2889 75.4706C66.2889 75.4478 66.2657 75.4249 66.2424 75.4249H64.7786C64.3138 75.4249 63.9188 75.0365 63.9188 74.5795V72.9573C63.9188 72.5004 64.3138 72.112 64.7786 72.112H66.2424C66.2657 72.112 66.2889 72.0891 66.2889 72.0663L66.3121 68.0907C66.3121 67.6338 66.7072 67.2454 67.1719 67.2454H69.1702C69.6814 67.2682 70.0532 67.6566 70.0532 68.1364Z" fill="#221F1F"/>
<path d="M87.7124 81.0227C87.7124 81.6396 87.2012 82.1423 86.5739 82.1423H77.7441C77.6977 82.1423 77.6512 82.188 77.6744 82.2337C77.8138 84.0843 79.1615 85.341 81.1366 85.341C82.3914 85.341 83.2743 84.9526 83.7623 84.1986C83.9714 83.8787 84.3432 83.6731 84.715 83.6731H85.9232C86.8062 83.6731 87.3407 84.587 86.9224 85.341C85.7606 87.3288 83.7855 88.4255 81.0204 88.4255C78.8827 88.4255 77.14 87.7629 75.8155 86.4148C74.5143 85.044 73.8405 83.2618 73.8405 81.0456C73.8405 78.8979 74.4911 77.0929 75.8388 75.722C77.1865 74.3283 78.8827 73.62 81.0204 73.62C85.017 73.62 87.7124 76.179 87.7124 81.0227ZM83.739 79.629C83.8785 79.629 83.9946 79.5148 83.9714 79.3777C83.832 77.7326 82.6702 76.6588 80.9275 76.6588C79.208 76.6588 78.023 77.7326 77.7209 79.3548C77.6977 79.4919 77.8138 79.629 77.9533 79.629H83.739V79.629Z" fill="#221F1F"/>
<path d="M99.3074 78.0982H96.8211C96.5423 78.0982 96.31 77.8926 96.2402 77.6184C96.0776 76.8416 95.5199 76.476 94.637 76.476C93.6146 76.476 93.0337 77.0015 93.0337 77.8697C93.0337 78.7608 93.6146 79.1492 95.5664 79.4919C98.9821 80.0631 100.26 81.434 100.26 83.8102C100.26 86.8718 97.89 88.4255 94.6834 88.4255C91.4536 88.4255 89.4553 86.9175 89.1068 84.4728C89.0603 84.13 89.3391 83.8102 89.6877 83.8102H92.1739C92.4528 83.8102 92.6851 83.993 92.7548 84.2671C92.9407 85.1125 93.6378 85.5466 94.7764 85.5466C95.9149 85.5466 96.5656 85.0668 96.5656 84.1986C96.5656 83.2847 95.9846 82.8049 93.9399 82.4393C90.7798 81.9138 89.3159 80.5658 89.3159 78.2353C89.3159 76.9101 89.7806 75.8362 90.7101 74.968C91.6395 74.077 92.964 73.62 94.637 73.62C97.4253 73.62 99.4468 75.1051 99.8651 77.4128C99.958 77.7783 99.6792 78.0982 99.3074 78.0982Z" fill="#221F1F"/>
</svg>
